- 
http://www.Speed.Cd      fast  and The Hottest Private Tracker on the net

Please Seed back to make the speed Faster!!!

------------------nfo--------------------------
-[IMG]http://img37.imageshack.us/img37/7513/idontknowhowshedoesitor.jpg[/IMG]




[b]Thx Hive

CM8 Doing It Right The First Time :D


Source: Russian DVD-R

Ja.ne.znaju.kak.ona.delaet.jeto.2011.D.DVD

Encode:

DVD had english audio on it and great quality.
added brightness,sharpness,rgb and denoise
got very nice
enjoy

Video: 720x400 @bitrate 18000 2pass
Audio: English AC3 5.1 @448
Sample: yes included[/b]


[url]http://www.imdb.com/title/tt1742650/[/url]


General
Complete name                  :
Format                         : AVI
Format/Info                    : Audio Video Interleave
File size                      : 1.35 GiB
Duration                       : 1h 25mn
Overall bit rate               : 2 256 Kbps
Writing application            : Nandub v1.0rc2
Writing library                : Nandub build 1853/release

Video
ID                             : 0
Format                         : MPEG-4 Visual
Format profile                 : Advanced Simple@L5
Format settings, BVOP          : 2
Format settings, QPel          : Yes
Format settings, GMC           : No warppoints
Format settings, Matrix        : Default (H.263)
Muxing mode                    : Packed bitstream
Codec ID                       : XVID
Codec ID/Hint                  : XviD
Duration                       : 1h 25mn
Bit rate                       : 1 798 Kbps
Width                          : 720 pixels
Height                         : 400 pixels
Display aspect ratio           : 16:9
Frame rate                     : 25.000 fps
Color space                    : YUV
Chroma subsampling             : 4:2:0
Bit depth                      : 8 bits
Scan type                      : Progressive
Compression mode               : Lossy
Bits/(Pixel*Frame)             : 0.250
Stream size                    : 1.08 GiB (80%)
Writing library                : XviD 1.2.1 (UTC 2008-12-04)

Audio
ID                             : 1
Format                         : AC-3
Format/Info                    : Audio Coding 3
Mode extension                 : CM (complete main)
Codec ID                       : 2000
Duration                       : 1h 25mn
Bit rate mode                  : Constant
Bit rate                       : 448 Kbps
Channel(s)                     : 6 channels
Channel positions              : Front: L C R, Side: L R, LFE
Sampling rate                  : 48.0 KHz
Bit depth                      : 16 bits
Compression mode               : Lossy
Stream size                    : 275 MiB (20%)
Alignment                      : Split accross interleaves
Interleave, duration           : 40 ms (1.00 video frame)
Interleave, preload duration   : 500 ms


Plot:

A comedy centered on the life of Kate Reddy, a finance executive who is the breadwinner for her husband and two kids.  


Cast:

Sarah Jessica Parker	... 	Kate Reddy
Pierce Brosnan	... 	Jack Abelhammer
Greg Kinnear	... 	Richard Reddy
Christina Hendricks	... 	Allison Henderson
Kelsey Grammer	... 	Clark Cooper


[img]http://img705.imageshack.us/img705/5645/32351530.png[/img]
[img]http://img35.imageshack.us/img35/6403/ddooddodoo.png[/img]
[img]http://img600.imageshack.us/img600/2195/doddodoo.png[/img]
[img]http://img802.imageshack.us/img802/8686/doddoo.png[/img]
[img]http://img7.imageshack.us/img7/3580/dodoz.png[/img]
[img]http://img713.imageshack.us/img713/8081/ddodododooddodoo.png[/img]
[img]http://img819.imageshack.us/img819/2730/ddododooddodoo.png[/img]
[img]http://img189.imageshack.us/img189/3325/ddodooddodoo.png[/img]
[IMG]http://img810.imageshack.us/img810/8766/51488994.png[/IMG]




Greetz

ViSiON,SiC,SANTi,3LT0N,YanKeeS,MAGNET,THC,T0XiC,LKRG,FANTASIA-PLAY,FANTASIA-M,FLAWL3SS,
D2U,WBZ,BHRG,NOVA,Vik,Rapeseed,SAFC,goldadvance,MEMORY100,KaN1vE,Unevano,Pinnz,Wayne
Mr Hive,cedrict wink,and all P2P groups
Great Work Guys :D

LOOKING FOR ANYTHING YOU WANT TO LOOK AND SOUND BETTER

CM8@hushmail.com